<svg xmlns="http://www.w3.org/2000/svg" viewBox="0 0 250 250" width="250" height="250">
  <path d="M 51 88 A 16 16 0 0 0 34 105 A 16 16 0 0 0 34 107 A 30 30 0 0 0 7 138 A 30 30 0 0 0 12 155 A 36 36 0 0 0 41 213 C 43 213 48 213 54 213 L 54 213 L 211 213 L 211 207 L 69 207 C 73 199 78 188 78 177 A 36 36 0 0 0 66 149 A 30 30 0 0 0 68 138 A 30 30 0 0 0 61 118 A 16 16 0 0 0 67 105 A 16 16 0 0 0 51 88 z " fill="#7ac943" />
  <path d="M 125,40 40,120 H 220 Z" fill="#805c39" />
  <polygon points="60,210 200,210 200,120 125,60 60,120 " fill="#facc66" />
  <rect fill="#9eb4ca" x="148" y="137" width="35" height="35" />
  <rect fill="#7e96ad" x="148" y="137" width="4" height="35" />
  <rect fill="#7e96ad" x="148" y="137" width="35" height="4" />
  <rect fill="#805c39" x="83" y="126" width="35" height="75" />
  <path d="M 215 169 A 11 11 0 0 0 204 176 A 15 15 0 0 0 202 176 A 15 15 0 0 0 187 191 A 11 11 0 0 0 176 202 A 11 11 0 0 0 188 213 L 229 213 L 229 213 A 15 15 0 0 0 229 213 A 15 15 0 0 0 245 198 A 15 15 0 0 0 229 183 A 15 15 0 0 0 226 184 A 11 11 0 0 0 226 181 A 11 11 0 0 0 215 169 z " fill="#7ac943" />
</svg>
